<svg width="1817" height="982" viewBox="0 0 1817 982" fill="none" xmlns="http://www.w3.org/2000/svg">
<path d="M46.855 134.385C46.855 229.536 46.855 324.687 46.855 419.838C46.855 432.23 45.0571 442.683 45.0571 454.396C45.0571 459.961 41.3168 484.843 45.956 488.555C58.9482 498.948 72.7957 511.419 88.2048 518.718C97.6891 523.211 110.632 520.999 120.965 523.113C133.313 525.638 145.709 528.107 158.32 528.107C189.472 528.107 219.676 512.254 251.007 509.329C283.617 506.286 321.078 504.654 352.484 515.122C367.642 520.175 391.187 509.629 406.019 506.932C444.4 499.954 482.799 497.544 521.779 497.544C563.15 497.544 604.559 497.045 645.928 497.544C669.304 497.825 691.915 504.735 715.643 504.735C727.968 504.735 740.054 506.533 752.498 506.533C754.619 506.533 760.432 507.708 760.589 504.735C761.204 493.051 760.23 481.275 760.689 469.578C763.874 388.352 796.545 311.496 796.545 230.068C796.545 202.448 799.937 172.232 793.848 145.171C788.29 120.468 784.786 94.6853 780.764 69.6631C780.096 65.5084 783.209 27.7133 779.366 26.6153C773.595 24.9666 765.26 26.5154 759.39 26.5154C731.464 26.5154 703.264 23.711 675.392 21.921C620.16 18.374 565.458 7.83579 510.093 6.73944C470.826 5.96189 431.784 3.1438 392.435 3.1438C353.485 3.1438 314.671 1.73471 276.077 7.73823C249.022 11.9468 223.647 17.5263 196.074 17.5263C182.095 17.5263 170.009 17.5281 156.522 20.7225C140.634 24.4854 124.174 28.6903 108.081 31.9089C91.0825 35.3085 78.8863 44.938 63.4348 50.2866C53.5322 53.7144 52.4125 53.7102 44.1582 47.2902C39.8311 43.9247 37.2933 47.3107 38.2654 51.6849C40.4802 61.6514 41.4615 72.7289 41.4615 82.9469C41.4615 92.8049 43.2593 102.701 43.2593 112.811C43.2593 121.897 42.2112 131.24 45.0571 139.778" stroke="black" stroke-width="5" stroke-linecap="round"/>
<path d="M274.379 118.604C282.01 113.622 288.545 108.433 294.954 102.024C300.019 110.465 307.441 118.028 312.033 126.294C317.716 136.524 319.229 150.045 322.92 161.452C327.223 174.753 333.648 187.112 338.9 200.005C341.156 205.541 345.192 213.392 343.395 219.681C341.314 226.965 309.251 232.628 303.843 233.265C277.195 236.4 251.778 238.658 224.839 238.658C190.68 238.658 88.2804 240.93 122.363 238.658C130.936 238.086 140.826 232.783 147.533 227.871C169.157 212.033 188.871 195.224 207.26 175.734C226.861 154.961 250.399 134.257 274.379 118.604Z" stroke="black" stroke-width="5" stroke-linecap="round"/>
<path d="M580.807 190.117C574.05 190.117 564.749 188.343 558.334 190.317C549.218 193.122 545.432 205.964 541.255 213.089C536.227 221.666 535.861 233.617 535.861 243.252C535.861 259.666 535.861 276.079 535.861 292.493C535.861 304.34 558.457 310.571 568.622 310.571C592.723 310.571 617.143 300.977 637.538 287.998C654.165 277.417 667.396 236.729 646.927 223.876C628.385 212.233 607.514 204.954 588.897 194.611C581.619 190.568 565.607 193.713 557.435 193.713" stroke="black" stroke-width="5" stroke-linecap="round"/>
<path d="M278.773 339.336C278.773 356.681 278.773 374.027 278.773 391.373C278.773 396.049 278.579 400.78 278.773 405.455C278.869 407.752 286.697 405.825 288.562 405.655C315.328 403.222 341.779 396.959 368.564 394.169C376.057 393.389 389.464 395.254 396.431 391.273C399.001 389.804 397.429 378.921 397.429 376.69C397.429 363.14 397.429 349.59 397.429 336.04C397.429 321.857 400.434 304.067 397.33 290.095C396.21 285.058 320.315 288.997 313.032 288.997C298.017 288.997 283.002 288.997 267.987 288.997C260.919 288.997 271.014 303.66 271.582 308.773C272.697 318.81 278.773 326.149 278.773 337.538C278.773 346.527 278.773 355.516 278.773 364.505" stroke="black" stroke-width="5" stroke-linecap="round"/>
<path d="M1001.5 625.189C953.819 625.189 905.334 622.491 857.771 625.289C837.418 626.486 825.825 635.29 809.13 644.565C796.336 651.673 798.343 665.325 798.343 678.224C798.343 690.413 804.05 701.253 814.523 706.49C828.294 713.376 845.674 719.944 861.266 722.171C878.439 724.624 893.174 734.883 910.207 738.052C923.353 740.498 936.879 739.765 949.759 743.445C960.42 746.491 972.615 748.613 983.518 751.036C1002.11 755.168 1017.81 767.216 1037.45 767.216C1050.84 767.216 1063.95 769.014 1077.8 769.014C1100.35 769.014 1112.48 753.133 1132.34 746.042C1144.32 741.761 1158.48 738.332 1169.59 732.159C1174.04 729.689 1183.14 728.79 1184.77 723.07C1187.2 714.584 1186.67 705.051 1186.67 696.103C1186.67 686.765 1186.9 680.536 1177.68 675.927C1168.81 671.493 1159.66 667.517 1150.72 663.043C1127.71 651.542 1101.75 647.956 1077 641.769C1062.35 638.104 1048.25 630.582 1032.96 630.582C1017.08 630.582 999.979 628.784 983.518 628.784" stroke="black" stroke-width="5" stroke-linecap="round"/>
<path d="M890.032 617.998C884.378 617.998 878.797 613.404 873.851 611.206C867.232 608.264 858.488 609.008 851.279 609.008C844.16 609.008 836.424 610.134 832.501 616.999C829.502 622.248 819.303 625.146 821.714 632.38" stroke="black" stroke-width="5" stroke-linecap="round"/>
<path d="M879.245 596.424C879.245 576.677 869.498 556.064 863.464 537.495C859.265 524.576 855.873 507.591 855.873 493.948" stroke="black" stroke-width="5" stroke-linecap="round"/>
<path d="M785.758 648.56C739.411 648.56 695.225 659.098 649.823 667.437C634.755 670.205 619.361 670.4 604.378 673.73C601.087 674.461 592.912 674.689 591.594 677.325" stroke="black" stroke-width="5" stroke-linecap="round"/>
<path d="M1302.64 747.735V935.29" stroke="black" stroke-width="5" stroke-linecap="round"/>
<path d="M1298.23 816.137C1282.88 816.137 1270.74 821.011 1255.94 823.738C1233.14 827.937 1204.05 830.816 1181.28 824.964C1168.08 821.569 1153.5 808.041 1144.88 797.505C1139.69 791.165 1134.47 789.494 1132.74 780.833" stroke="black" stroke-width="5" stroke-linecap="round"/>
<path d="M1291.61 818.344C1325.44 818.344 1359.28 818.344 1393.11 818.344C1410.71 818.344 1426.71 817.331 1443.37 822.267C1458.98 826.891 1467.9 827.779 1481.37 821.041C1497.29 813.084 1516.04 794.072 1534.33 794.072" stroke="black" stroke-width="5" stroke-linecap="round"/>
<path d="M1260.72 509.43C1260.27 513.008 1256.07 518.963 1254.59 522.67C1252.69 527.429 1254.1 535.291 1254.1 540.444C1254.1 565.819 1254.1 591.194 1254.1 616.57C1254.1 628.485 1258.23 639.94 1259.62 651.874C1262.25 674.48 1265.57 696.572 1271.75 718.56C1276.98 737.154 1283.84 750.202 1293.33 765.387C1302.13 779.473 1337.26 772.423 1347.88 764.162C1364.9 750.919 1368.63 728.397 1382.08 712.431C1392.73 699.784 1400.53 679.96 1407.58 664.868C1414.21 650.642 1422.1 637.275 1428.42 623.066C1432.8 613.195 1437.24 606.757 1437.24 595.975C1437.24 583.464 1438.73 570.082 1435.53 557.974C1432.38 546.098 1427.12 530.98 1419.59 521.566C1415.87 516.918 1392.33 520.463 1386.49 520.463C1373.29 520.463 1360.1 520.463 1346.9 520.463C1318.47 520.463 1288.41 513.44 1260.72 522.67" stroke="black" stroke-width="5" stroke-linecap="round"/>
<path d="M1289.4 681.539C1301.89 681.539 1319.04 684.679 1330.84 681.049C1344.51 676.841 1337.29 699.512 1330.84 705.321C1323.28 712.123 1307.67 715.376 1297.74 711.94C1281.64 706.366 1284.99 690.85 1284.99 677.126" stroke="black" stroke-width="5" stroke-linecap="round"/>
<path d="M1291.61 584.452V624.17" stroke="black" stroke-width="5" stroke-linecap="round"/>
<path d="M1362.22 580.039C1362.22 596.443 1367.22 625.204 1360.01 639.616" stroke="black" stroke-width="5" stroke-linecap="round"/>
<path d="M1309.26 646.235C1310.1 652.964 1324.05 652.854 1329.12 652.854" stroke="black" stroke-width="5" stroke-linecap="round"/>
<path d="M1243.07 604.311C1235.26 604.311 1220.82 607.395 1215.49 600.878C1204.47 587.42 1202.54 556.527 1205.8 540.199C1207.62 531.103 1214.8 526.325 1221 520.463C1223.63 517.979 1229.59 516.05 1223.21 516.05C1204.54 516.05 1212.66 489.185 1217.08 479.029C1222.45 466.702 1232.39 450.087 1246.01 446.422C1263.3 441.768 1280.25 441.028 1297.99 441.028C1303.61 441.028 1306.13 440.006 1310.37 436.615C1319.56 429.257 1337.17 435.839 1344.57 443.234C1349.4 448.067 1352.57 454.423 1357.32 459.171C1361.7 463.555 1358.79 454.262 1360.5 452.551C1367.1 445.959 1381.32 455.719 1385.39 459.783C1389.3 463.692 1392.55 470.266 1395.32 475.107C1396.24 476.725 1406.33 477.901 1408.56 478.539C1412.5 479.667 1441.65 492.597 1441.65 496.191C1441.65 499.09 1433.97 500.761 1436.02 502.811C1439.03 505.826 1446.75 504.103 1448.76 509.921C1451.59 518.091 1450.48 527.256 1450.48 535.786C1450.48 541.736 1447.16 549.093 1448.4 554.664C1448.88 556.844 1456.24 563.021 1458.2 564.593C1463.95 569.191 1458.1 573.752 1453.79 577.833C1448.15 583.178 1440.6 588.127 1435.53 593.769C1434.01 595.449 1437.24 603.766 1437.24 606.517C1437.24 613.131 1442.36 622.715 1435.04 626.376" stroke="black" stroke-width="5" stroke-linecap="round"/>
<path d="M1518.88 738.909C1518.88 759.927 1529.95 784.344 1539.23 802.898C1543.73 811.894 1540.95 827.055 1540.95 837.099C1540.95 843.551 1580.4 840.409 1589.49 840.409C1609.82 840.409 1602.73 818.693 1602.73 802.898C1602.73 772.248 1607.14 741.628 1607.14 711.327C1607.14 702.343 1604.68 703.605 1596.11 703.605C1586.39 703.605 1576.66 703.605 1566.94 703.605C1550.66 703.605 1541.14 703.764 1526.61 710.224C1518.49 713.833 1518.88 714.061 1518.88 723.463C1518.88 730.083 1518.88 736.702 1518.88 743.322" stroke="black" stroke-width="5" stroke-linecap="round"/>
<path d="M1518.88 743.322C1524.31 743.322 1524.96 740.797 1528.2 737.193C1532.53 732.384 1531.82 737.719 1535.55 738.787C1542.76 740.846 1555.71 735.281 1561.79 740.258C1566.22 743.88 1577.69 756.319 1578.46 743.322C1578.98 734.512 1600.64 730.044 1607.14 727.876" stroke="black" stroke-width="5" stroke-linecap="round"/>
<path d="M89.0545 858.061C68.7164 858.061 49.1225 860.053 33.7688 844.7C17.5848 828.516 14.9089 807.523 3 789.659" stroke="black" stroke-width="5" stroke-linecap="round"/>
<path d="M1594.05 565.454C1573.72 565.454 1554.12 567.446 1538.77 552.093C1522.58 535.909 1519.91 514.915 1508 497.052" stroke="black" stroke-width="5" stroke-linecap="round"/>
<path d="M97.8806 902.192C104.298 897.058 119.054 899.474 126.933 897.656C150.831 892.141 173.167 883.131 196.807 876.939C214.032 872.428 230.269 865.786 245.718 858.061" stroke="black" stroke-width="5" stroke-linecap="round"/>
<path d="M1602.88 609.585C1609.3 604.451 1624.05 606.867 1631.93 605.049C1655.83 599.534 1678.17 590.523 1701.81 584.332C1719.03 579.821 1735.27 573.178 1750.72 565.454" stroke="black" stroke-width="5" stroke-linecap="round"/>
<path d="M66.9892 701.398C66.9892 722.732 62.9158 749.774 78.5122 767.104C92.0918 782.192 107.561 797.1 117.739 814.912C124.993 827.606 162.897 798.381 166.283 790.762C175.183 770.738 188.348 753.667 188.348 730.083" stroke="black" stroke-width="5" stroke-linecap="round"/>
<path d="M1571.99 408.791C1571.99 430.125 1567.92 457.167 1583.51 474.496C1597.09 489.585 1612.56 504.493 1622.74 522.305C1629.99 534.999 1667.9 505.774 1671.28 498.155C1680.18 478.131 1693.35 461.06 1693.35 437.476" stroke="black" stroke-width="5" stroke-linecap="round"/>
<path d="M153.044 582.246C125.843 568.645 94.7872 573.419 64.7827 573.419C53.3608 573.419 45.4731 583.368 40.5109 592.052C37.7794 596.832 33.8913 600.495 33.8913 606.517C33.8913 611.686 33.058 623.022 30.5815 627.479C25.8728 635.955 27.2718 654.336 27.2718 664.377C27.2718 677.568 25.0652 689.412 25.0652 702.379C25.0652 725.342 22.8587 746.896 22.8587 769.8" stroke="black" stroke-width="5" stroke-linecap="round"/>
<path d="M177.316 599.898C187.436 599.898 192.051 599.409 198.89 607.008C206.284 615.223 207.712 631.522 218.014 637.409C222.208 639.806 228.066 660.829 228.066 666.094C228.066 677.757 230.272 688.605 230.272 700.295C230.272 744.036 232.479 786.4 232.479 829.377" stroke="black" stroke-width="5" stroke-linecap="round"/>
<path d="M78.0219 659.474C86.3346 659.474 93.0306 658.819 97.8806 666.094" stroke="black" stroke-width="5" stroke-linecap="round"/>
<path d="M1583.02 366.867C1591.33 366.867 1598.03 366.211 1602.88 373.486" stroke="black" stroke-width="5" stroke-linecap="round"/>
<path d="M139.805 677.126C140.358 672.702 155.729 668.3 159.663 668.3C170.203 668.3 168.305 673.724 175.109 677.126" stroke="black" stroke-width="5" stroke-linecap="round"/>
<path d="M1644.8 384.519C1645.36 380.094 1660.73 375.693 1664.66 375.693C1675.2 375.693 1673.3 381.117 1680.11 384.519" stroke="black" stroke-width="5" stroke-linecap="round"/>
<path d="M102.294 721.257H126.565" stroke="black" stroke-width="5" stroke-linecap="round"/>
<path d="M1607.29 428.65H1631.57" stroke="black" stroke-width="5" stroke-linecap="round"/>
<path d="M106.707 754.355C116.596 754.355 124.453 754.313 133.185 750.432C145.257 745.067 143.996 762.323 136.495 766.491C131.224 769.419 115.96 768.792 110.016 767.471C100.92 765.45 98.1183 755.068 95.6741 747.735" stroke="black" stroke-width="5" stroke-linecap="round"/>
<path d="M1611.71 461.748C1621.6 461.748 1629.45 461.706 1638.19 457.825C1650.26 452.459 1649 469.716 1641.49 473.883C1636.22 476.812 1620.96 476.185 1615.02 474.864C1605.92 472.843 1603.12 462.461 1600.67 455.128" stroke="black" stroke-width="5" stroke-linecap="round"/>
<path d="M84.7285 674.117V683.903" stroke="black" stroke-width="5" stroke-linecap="round"/>
<path d="M1589.73 381.51V391.296" stroke="black" stroke-width="5" stroke-linecap="round"/>
<path d="M153.226 688.795V700.212" stroke="black" stroke-width="5" stroke-linecap="round"/>
<path d="M1658.23 396.188V407.604" stroke="black" stroke-width="5" stroke-linecap="round"/>
<path d="M443.13 825.965C442.454 832.041 424.253 836.188 419.488 839.081C409.547 845.116 398.85 850.689 388.559 856.57C383.239 859.61 376.088 858.838 370.99 861.67C364.451 865.303 364.432 869.04 364.432 876.973C364.432 883.288 364.432 889.603 364.432 895.919C364.432 901.16 377.8 898.833 382.001 898.833C403.442 898.833 417.986 905.936 435.843 914.864" stroke="black" stroke-width="5" stroke-linecap="round"/>
<path d="M470.82 817.22C473.952 817.847 476.372 821.375 478.592 823.374C488.326 832.134 498.722 840.098 508.387 848.959C518.046 857.813 528.26 865.917 537.535 875.191C542.542 880.199 546.176 886.465 550.975 891.546C559.657 900.739 554.561 892.204 558.586 885.393C563.539 877.01 571.637 869.168 575.75 860.942" stroke="black" stroke-width="5" stroke-linecap="round"/>
<path d="M575.75 828.88C575.75 836.895 575.75 844.911 575.75 852.926C575.75 861.779 581.191 868.92 584.495 876.811C588.312 885.93 600.555 882.802 608.541 882.802C614.344 882.802 620.146 882.802 625.949 882.802C632.627 882.802 634.045 881.122 634.045 873.896C634.045 851.975 636.204 827.018 642.466 805.886C643.496 802.407 643.38 798.166 644.166 794.631C645.053 790.641 626.26 792.445 623.196 792.445C612.094 792.445 595.084 789.153 585.223 794.631C582.102 796.365 579.384 796.817 575.75 796.817C570.263 796.817 571.378 799.327 571.378 804.185C571.378 813.388 571.378 822.591 571.378 831.794" stroke="black" stroke-width="5" stroke-linecap="round"/>
<path d="M406.695 646.708C406.695 664.305 406.695 681.901 406.695 699.497C406.695 710.951 414.409 717.721 419.488 726.864C429.036 744.05 445.267 750.181 464.261 750.181C474.015 750.181 476.785 752.304 483.288 742.085C487.022 736.218 490.908 730.395 494.866 724.678C497.523 720.84 499.784 711.516 503.529 709.375C506.473 707.693 505.847 696.137 506.525 693.425C507.983 687.593 507.254 681.056 507.254 675.046C507.254 662.199 507.254 649.353 507.254 636.507" stroke="black" stroke-width="5" stroke-linecap="round"/>
<path d="M403.781 619.018C403.781 623.392 401.434 635.455 404.59 638.612C408.399 642.421 414.257 642.336 419.164 642.336C428.605 642.336 434.145 635.647 440.215 629.22C447.245 621.776 453.53 609.862 443.858 602.339C435.001 595.45 421.797 599.016 416.897 608.816" stroke="black" stroke-width="5" stroke-linecap="round"/>
<path d="M479.564 610.274C473.315 617.304 481.836 630.04 485.069 636.507C490.318 647.004 496.137 651.325 506.525 646.708C513.449 643.631 518.913 632.66 518.913 625.576C518.913 621.07 519.887 616.916 516.808 613.837C512.553 609.582 506.476 604.445 499.967 604.445" stroke="black" stroke-width="5" stroke-linecap="round"/>
<path d="M451.874 619.018H467.905" stroke="black" stroke-width="5" stroke-linecap="round"/>
<path d="M387.75 624.848C387.75 616.832 387.75 608.817 387.75 600.801C387.75 591.349 385.339 578.17 389.207 569.468C390.404 566.774 391.16 563.952 393.255 561.857C394.4 560.712 397.385 559.447 397.951 558.456C400.269 554.4 402.013 550.91 404.914 547.283C409.727 541.268 405.887 538.863 414.711 538.863C420.297 538.863 425.884 538.863 431.471 538.863C437.074 538.863 439.98 533.832 444.587 539.591C448.785 544.839 455.866 534.436 457.379 531.576C460.699 525.305 465.387 531.576 470.091 531.576C476.706 531.576 479.092 525.746 485.717 525.746C494.885 525.746 507.814 523.304 516.646 525.827C518.931 526.48 520.051 538.871 521.504 541.778C527.778 554.326 533.952 569.285 544.012 579.345C549.255 584.588 546.991 599.915 546.522 606.711C545.84 616.602 541.514 620.451 537.859 627.762" stroke="black" stroke-width="5" stroke-linecap="round"/>
<path d="M446.044 667.111C449.967 670.599 463.025 665.212 464.99 661.282" stroke="black" stroke-width="5" stroke-linecap="round"/>
<path d="M443.13 705.003C450.538 705.003 460.145 708.975 467.095 705.003C470.996 702.774 469.362 709.085 469.362 712.371C469.362 716.684 469.616 721.099 469.362 725.406C469.026 731.127 445.074 728.295 442.401 726.216C435.322 720.71 432.928 712.608 432.928 703.546" stroke="black" stroke-width="5" stroke-linecap="round"/>
<path d="M244.927 837.624C244.927 860.213 244.927 882.802 244.927 905.391C244.927 912.153 269.632 909.035 274.803 909.035C288.288 909.035 292.233 894.239 300.307 885.717C304.166 881.643 304.679 880.623 304.679 874.706C304.679 861.481 304.679 848.257 304.679 835.033C304.679 824.045 304.407 813.217 305.813 802.323C306.401 797.768 307.594 792.624 307.594 788.073C307.594 783.487 308.89 778.478 308.89 774.309C308.89 770.595 286.632 782.015 285.005 782.891C276.042 787.718 262.705 787.28 252.943 789.45C249.046 790.315 243.694 787.793 240.879 791.312C237.171 795.947 240.555 816.688 240.555 822.402C240.555 837.678 240.555 852.953 240.555 868.228" stroke="black" stroke-width="5" stroke-linecap="round"/>
<path d="M1749.93 545.017C1749.93 567.606 1749.93 590.195 1749.93 612.784C1749.93 619.546 1774.63 616.428 1779.8 616.428C1793.29 616.428 1797.23 601.632 1805.31 593.11C1809.17 589.036 1809.68 588.016 1809.68 582.099C1809.68 568.874 1809.68 555.65 1809.68 542.426C1809.68 531.438 1809.41 520.61 1810.81 509.716C1811.4 505.161 1812.59 500.017 1812.59 495.466C1812.59 490.88 1813.89 485.871 1813.89 481.702C1813.89 477.988 1791.63 489.408 1790 490.284C1781.04 495.11 1767.71 494.673 1757.94 496.842C1754.05 497.708 1748.69 495.185 1745.88 498.705C1742.17 503.34 1745.56 524.081 1745.56 529.795C1745.56 545.071 1745.56 560.346 1745.56 575.621" stroke="black" stroke-width="5" stroke-linecap="round"/>
<path d="M95.6741 831.583V981.627" stroke="black" stroke-width="5" stroke-linecap="round"/>
<path d="M1600.67 538.976V689.02" stroke="black" stroke-width="5" stroke-linecap="round"/>
<path d="M457.703 753.096V978.989" stroke="black" stroke-width="5" stroke-linecap="round"/>
<path d="M569.094 820.099H623.673" stroke="black" stroke-width="5" stroke-linecap="round"/>
<path d="M245.253 820.099C261.735 820.099 277.804 818.28 294.375 818.28" stroke="black" stroke-width="5" stroke-linecap="round"/>
<path d="M1649.78 305.229C1648.84 297.723 1620.3 288.855 1613.39 288.855C1602.16 288.855 1597.68 289.524 1589.33 297.547C1574.91 311.413 1556.39 323.816 1547.49 341.616C1539.29 358.023 1538.8 374.426 1538.8 392.557C1538.8 400.394 1538.34 408.386 1538.8 416.208C1538.89 417.722 1556.97 416.208 1560.63 416.208" stroke="black" stroke-width="5" stroke-linecap="round"/>
<path d="M1657.05 312.506C1657.05 301.286 1676.58 305.229 1684.34 305.229C1696.07 305.229 1705.04 314.096 1710.72 324.332C1722.33 345.217 1718.91 372.728 1718.91 396.195C1718.91 415.3 1722.55 433.526 1722.55 451.685C1722.55 455.341 1721.32 461.273 1723.96 463.915C1728.63 468.58 1721.07 466.355 1718 468.059C1711.48 471.68 1697.26 468.968 1689.8 468.968" stroke="black" stroke-width="5" stroke-linecap="round"/>
</svg>
